{
	"patcher" : 	{
		"fileversion" : 1,
		"appversion" : 		{
			"major" : 8,
			"minor" : 3,
			"revision" : 1,
			"architecture" : "x64",
			"modernui" : 1
		}
,
		"classnamespace" : "box",
		"rect" : [ 0.0, 0.0, 640.0, 480.0 ],
		"bglocked" : 0,
		"openinpresentation" : 0,
		"default_fontsize" : 12.0,
		"default_fontface" : 0,
		"default_fontname" : "Arial",
		"gridonopen" : 1,
		"gridsize" : [ 15.0, 15.0 ],
		"gridsnaponopen" : 1,
		"objectsnaponopen" : 1,
		"statusbarvisible" : 2,
		"toolbarvisible" : 1,
		"lefttoolbarpinned" : 0,
		"toptoolbarpinned" : 0,
		"righttoolbarpinned" : 0,
		"bottomtoolbarpinned" : 0,
		"toolbars_unpinned_last_save" : 0,
		"tallnewobj" : 0,
		"boxanimatetime" : 200,
		"enablehscroll" : 1,
		"enablevscroll" : 1,
		"devicewidth" : 0.0,
		"description" : "",
		"digest" : "",
		"tags" : "",
		"style" : "",
		"subpatcher_template" : "",
		"assistshowspatchername" : 0,
		"boxes" : [ 			{
				"box" : 				{
					"id" : "obj-48",
					"maxclass" : "newobj",
					"numinlets" : 0,
					"numoutlets" : 1,
					"outlettype" : [ "" ],
					"patching_rect" : [ 242.0, 3.0, 83.0, 22.0 ],
					"text" : "r to.pitchslider"
				}

			}
, 			{
				"box" : 				{
					"id" : "obj-47",
					"maxclass" : "newobj",
					"numinlets" : 1,
					"numoutlets" : 0,
					"patching_rect" : [ 1180.0, 694.0, 85.0, 22.0 ],
					"text" : "s to.pitchslider"
				}

			}
, 			{
				"box" : 				{
					"id" : "obj-46",
					"maxclass" : "newobj",
					"numinlets" : 2,
					"numoutlets" : 1,
					"outlettype" : [ "" ],
					"patching_rect" : [ 1156.0, 615.0, 47.0, 22.0 ],
					"text" : "pack f f"
				}

			}
, 			{
				"box" : 				{
					"id" : "obj-45",
					"maxclass" : "newobj",
					"numinlets" : 0,
					"numoutlets" : 0,
					"patching_rect" : [ 1247.0, 562.0, 104.0, 22.0 ],
					"text" : "autoscaler 0. 500."
				}

			}
, 			{
				"box" : 				{
					"id" : "obj-44",
					"maxclass" : "newobj",
					"numinlets" : 0,
					"numoutlets" : 0,
					"patching_rect" : [ 1086.0, 561.0, 104.0, 22.0 ],
					"text" : "autoscaler 0. 500."
				}

			}
, 			{
				"box" : 				{
					"id" : "obj-43",
					"maxclass" : "newobj",
					"numinlets" : 1,
					"numoutlets" : 2,
					"outlettype" : [ "float", "float" ],
					"patching_rect" : [ 1086.0, 514.0, 61.0, 22.0 ],
					"text" : "unpack f f"
				}

			}
, 			{
				"box" : 				{
					"id" : "obj-42",
					"maxclass" : "newobj",
					"numinlets" : 1,
					"numoutlets" : 2,
					"outlettype" : [ "", "bang" ],
					"patching_rect" : [ 1090.0, 466.0, 141.0, 22.0 ],
					"saved_object_attributes" : 					{
						"versionnumber" : 80105
					}
,
					"text" : "bach.keys coord @out m"
				}

			}
, 			{
				"box" : 				{
					"id" : "obj-41",
					"maxclass" : "newobj",
					"numinlets" : 2,
					"numoutlets" : 1,
					"outlettype" : [ "" ],
					"patching_rect" : [ 1095.0, 422.0, 65.0, 22.0 ],
					"saved_object_attributes" : 					{
						"versionnumber" : 80105
					}
,
					"text" : "bach.nth 1"
				}

			}
, 			{
				"box" : 				{
					"id" : "obj-40",
					"maxclass" : "newobj",
					"numinlets" : 1,
					"numoutlets" : 2,
					"outlettype" : [ "", "bang" ],
					"patching_rect" : [ 1090.0, 382.0, 91.0, 22.0 ],
					"saved_object_attributes" : 					{
						"versionnumber" : 80105
					}
,
					"text" : "bach.keys balls"
				}

			}
, 			{
				"box" : 				{
					"bounce_data_0000000000" : [ "bounce", "[", "room", "[", "vertices", "[", "[", "coord", "_x_x_x_x_bach_float64_x_x_x_x_", 0, 3227058176, "_x_x_x_x_bach_float64_x_x_x_x_", 0, 3227058176, "]", "[", "pitch", "_x_x_x_x_bach_float64_x_x_x_x_", 0, 1085763584, "]", "[", "velocity", "_x_x_x_x_bach_float64_x_x_x_x_", 0, 1079574528, "]", "]", "[", "[", "coord", "_x_x_x_x_bach_float64_x_x_x_x_", 0, 1079574528, "_x_x_x_x_bach_float64_x_x_x_x_", 0, 3227058176, "]", "[", "pitch", "_x_x_x_x_bach_float64_x_x_x_x_", 0, 1085763584, "]", "[", "velocity", "_x_x_x_x_bach_float64_x_x_x_x_", 0, 1079574528, "]", "]", "[", "[", "coord", "_x_x_x_x_bach_float64_x_x_x_x_", 0, 1079574528, "_x_x_x_x_bach_float64_x_x_x_x_", 0, 1079574528, "]", "[", "pitch", "_x_x_x_x_bach_float64_x_x_x_x_", 0, 1085763584, "]", "[", "velocity", "_x_x_x_x_bach_float64_x_x_x_x_", 0, 1079574528, "]", "]", "[", "[", "coord", "_x_x_x_x_bach_float64_x_x_x_x_", 0, 3227058176, "_x_x_x_x_bach_float64_x_x_x_x_", 0, 1079574528, "]", "[", "pitch", "_x_x_x_x_bach_float64_x_x_x_x_", 0, 1085763584, "]", "[", "velocity", "_x_x_x_x_bach_float64_x_x_x_x_", 0, 1079574528, "]", "]", "[", "[", "coord", "_x_x_x_x_bach_float64_x_x_x_x_", 0, 1078329344, "_x_x_x_x_bach_float64_x_x_x_x_", 0, 1073741824, "]", "[", "pitch", "_x_x_x_x_bach_float64_x_x_x_x_", 0, 1085763584, "]", "[", "velocity", "_x_x_x_x_bach_float64_x_x_x_x_", 0, 1079574528, "]", "]", "[", "[", "coord", "_x_x_x_x_bach_float64_x_x_x_x_", 0, 3224109056, "_x_x_x_x_bach_float64_x_x_x_x_", 0, 1076232192, "]", "[", "pitch", "_x_x_x_x_bach_float64_x_x_x_x_", 0, 1085763584, "]", "[", "velocity", "_x_x_x_x_bach_float64_x_x_x_x_", 0, 1079574528, "]", "]", "[", "[", "coord", "_x_x_x_x_bach_float64_x_x_x_x_", 0, 1079181312, "_x_x_x_x_bach_float64_x_x_x_x_", 0, 1079541760, "]", "[", "pitch", "_x_x_x_x_bach_float64_x_x_x_x_", 0, 1085763584, "]", "[", "velocity", "_x_x_x_x_bach_float64_x_x_x_x_", 0, 1079574528, "]", "]", "[", "[", "coord", "_x_x_x_x_bach_float64_x_x_x_x_", 0, 3226042368, "_x_x_x_x_bach_float64_x_x_x_x_", 0, 1078820864, "]", "[", "pitch", "_x_x_x_x_bach_float64_x_x_x_x_", 0, 1085763584, "]", "[", "velocity", "_x_x_x_x_bach_float64_x_x_x_x_", 0, 1079574528, "]", "]", "[", "[", "coord", "_x_x_x_x_bach_float64_x_x_x_x_", 0, 3225845760, "_x_x_x_x_bach_float64_x_x_x_x_", 0, 3226714112, "]", "[", "pitch", "_x_x_x_x_bach_float64_x_x_x_x_", 0, 1085763584, "]", "[", "velocity", "_x_x_x_x_bach_float64_x_x_x_x_", 0, 1079574528, "]", "]", "]", "[", "edges", "[", 1, 2, "[", "pitch", "_x_x_x_x_bach_float64_x_x_x_x_", 0, 1085763584, "]", "[", "velocity", "_x_x_x_x_bach_float64_x_x_x_x_", 0, 1079574528, "]", "]", "[", 2, 3, "[", "pitch", "_x_x_x_x_bach_float64_x_x_x_x_", 0, 1086070784, "]", "[", "velocity", "_x_x_x_x_bach_float64_x_x_x_x_", 0, 1079574528, "]", "]", "[", 3, 4, "[", "pitch", "_x_x_x_x_bach_float64_x_x_x_x_", 2062535806, 1086250484, "]", "[", "velocity", "_x_x_x_x_bach_float64_x_x_x_x_", 0, 1079574528, "]", "]", "[", 4, 1, "[", "pitch", "_x_x_x_x_bach_float64_x_x_x_x_", 0, 1086351360, "]", "[", "velocity", "_x_x_x_x_bach_float64_x_x_x_x_", 0, 1079574528, "]", "]", "[", 5, 6, "[", "pitch", "_x_x_x_x_bach_float64_x_x_x_x_", 0, 1085763584, "]", "[", "velocity", "_x_x_x_x_bach_float64_x_x_x_x_", 0, 1079574528, "]", "]", "[", 6, 7, "[", "pitch", "_x_x_x_x_bach_float64_x_x_x_x_", 0, 1086070784, "]", "[", "velocity", "_x_x_x_x_bach_float64_x_x_x_x_", 0, 1079574528, "]", "]", "[", 7, 8, "[", "pitch", "_x_x_x_x_bach_float64_x_x_x_x_", 2062535806, 1086250484, "]", "[", "velocity", "_x_x_x_x_bach_float64_x_x_x_x_", 0, 1079574528, "]", "]", "[", 8, 9, "[", "pitch", "_x_x_x_x_bach_float64_x_x_x_x_", 0, 1086351360, "]", "[", "velocity", "_x_x_x_x_bach_float64_x_x_x_x_", 0, 1079574528, "]", "]", "[", 9, 5, "[", "pitch", "_x_x_x_x_bach_float64_x_x_x_x_", 667329250, 1086400808, "]", "[", "velocity", "_x_x_x_x_bach_float64_x_x_x_x_", 0, 1079574528, "]", "]", "]", "]", "[", "balls", "[", "[", "coord", "_x_x_x_x_bach_float64_x_x_x_x_", 0, 0, "_x_x_x_x_bach_float64_x_x_x_x_", 0, 0, "]", "[", "speed", "_x_x_x_x_bach_float64_x_x_x_x_", 0, 1079574528, "_x_x_x_x_bach_float64_x_x_x_x_", 0, 0, "]", "[", "color", "_x_x_x_x_bach_float64_x_x_x_x_", 2576980378, 1071225241, "_x_x_x_x_bach_float64_x_x_x_x_", 0, 0, "_x_x_x_x_bach_float64_x_x_x_x_", 0, 0, "_x_x_x_x_bach_float64_x_x_x_x_", 0, 1072693248, "]", "[", "channel", 1, "]", "[", "flags", "]", "]", "]" ],
					"bounce_data_count" : [ 1 ],
					"id" : "obj-39",
					"maxclass" : "dada.bounce",
					"numinlets" : 2,
					"numoutlets" : 5,
					"out" : "nnnn",
					"outlettype" : [ "", "", "", "", "bang" ],
					"patching_rect" : [ 1090.0, 52.0, 300.0, 300.0 ],
					"versionnumber" : 10200
				}

			}
, 			{
				"box" : 				{
					"id" : "obj-38",
					"maxclass" : "newobj",
					"numinlets" : 1,
					"numoutlets" : 1,
					"outlettype" : [ "" ],
					"patching_rect" : [ 969.0, 292.0, 73.0, 22.0 ],
					"text" : "loadmess 1."
				}

			}
, 			{
				"box" : 				{
					"id" : "obj-37",
					"maxclass" : "newobj",
					"numinlets" : 6,
					"numoutlets" : 1,
					"outlettype" : [ "" ],
					"patching_rect" : [ 362.0, 267.0, 110.0, 22.0 ],
					"text" : "scale 0 500 130. 0."
				}

			}
, 			{
				"box" : 				{
					"id" : "obj-36",
					"maxclass" : "newobj",
					"numinlets" : 6,
					"numoutlets" : 1,
					"outlettype" : [ "" ],
					"patching_rect" : [ 485.142850428571364, 255.0, 110.0, 22.0 ],
					"text" : "scale 0 500 0. 200."
				}

			}
, 			{
				"box" : 				{
					"id" : "obj-35",
					"maxclass" : "newobj",
					"numinlets" : 1,
					"numoutlets" : 2,
					"outlettype" : [ "int", "int" ],
					"patching_rect" : [ 448.142850428571364, 218.0, 29.5, 22.0 ],
					"text" : "t i i"
				}

			}
, 			{
				"box" : 				{
					"id" : "obj-34",
					"maxclass" : "newobj",
					"numinlets" : 6,
					"numoutlets" : 1,
					"outlettype" : [ "" ],
					"patching_rect" : [ 672.142850428571364, 185.0, 103.0, 22.0 ],
					"text" : "scale 0 500 0.1 5."
				}

			}
, 			{
				"box" : 				{
					"id" : "obj-31",
					"maxclass" : "number",
					"numinlets" : 1,
					"numoutlets" : 2,
					"outlettype" : [ "", "bang" ],
					"parameter_enable" : 0,
					"patching_rect" : [ 448.142850428571364, 144.0, 50.0, 22.0 ]
				}

			}
, 			{
				"box" : 				{
					"id" : "obj-29",
					"maxclass" : "number",
					"numinlets" : 1,
					"numoutlets" : 2,
					"outlettype" : [ "", "bang" ],
					"parameter_enable" : 0,
					"patching_rect" : [ 672.142850428571364, 144.0, 50.0, 22.0 ]
				}

			}
, 			{
				"box" : 				{
					"id" : "obj-25",
					"linecount" : 2,
					"maxclass" : "comment",
					"numinlets" : 1,
					"numoutlets" : 0,
					"patching_rect" : [ 684.142850428571364, 223.0, 197.0, 33.0 ],
					"text" : "pictslider @rightvalue 500 @topvalue 500"
				}

			}
, 			{
				"box" : 				{
					"id" : "obj-22",
					"maxclass" : "pictslider",
					"numinlets" : 2,
					"numoutlets" : 2,
					"outlettype" : [ "int", "int" ],
					"parameter_enable" : 0,
					"patching_rect" : [ 448.142850428571364, 26.5, 243.0, 102.5 ],
					"rightvalue" : 500,
					"topvalue" : 500
				}

			}
, 			{
				"box" : 				{
					"id" : "obj-21",
					"maxclass" : "comment",
					"numinlets" : 1,
					"numoutlets" : 0,
					"patching_rect" : [ 789.0, 696.0, 150.0, 20.0 ],
					"text" : "live.gain~ @channels 2"
				}

			}
, 			{
				"box" : 				{
					"id" : "obj-5",
					"maxclass" : "newobj",
					"numinlets" : 1,
					"numoutlets" : 1,
					"outlettype" : [ "signal" ],
					"patching_rect" : [ 400.642850428571364, 495.0, 77.0, 22.0 ],
					"text" : "receive~ in 1"
				}

			}
, 			{
				"box" : 				{
					"id" : "obj-20",
					"linecount" : 2,
					"maxclass" : "comment",
					"numinlets" : 1,
					"numoutlets" : 0,
					"patching_rect" : [ 880.953933324218724, 428.0, 54.687960328125001, 33.0 ],
					"presentation_linecount" : 2,
					"text" : "Stereo spread"
				}

			}
, 			{
				"box" : 				{
					"id" : "obj-19",
					"linecount" : 3,
					"maxclass" : "comment",
					"numinlets" : 1,
					"numoutlets" : 0,
					"patching_rect" : [ 822.60337142075889, 414.0, 58.539479007812531, 47.0 ],
					"presentation_linecount" : 3,
					"text" : "Grain pitch variation"
				}

			}
, 			{
				"box" : 				{
					"id" : "obj-18",
					"linecount" : 3,
					"maxclass" : "comment",
					"numinlets" : 1,
					"numoutlets" : 0,
					"patching_rect" : [ 764.252809517299056, 414.0, 60.0, 47.0 ],
					"presentation_linecount" : 3,
					"text" : "Grain pitch factor"
				}

			}
, 			{
				"box" : 				{
					"id" : "obj-17",
					"linecount" : 2,
					"maxclass" : "comment",
					"numinlets" : 1,
					"numoutlets" : 0,
					"patching_rect" : [ 700.908829353236683, 428.0, 66.0, 33.0 ],
					"presentation_linecount" : 2,
					"text" : "Grain size variation"
				}

			}
, 			{
				"box" : 				{
					"id" : "obj-16",
					"linecount" : 2,
					"maxclass" : "comment",
					"numinlets" : 1,
					"numoutlets" : 0,
					"patching_rect" : [ 649.707705546316902, 428.0, 45.687960328125001, 33.0 ],
					"presentation_linecount" : 2,
					"text" : "Grain size"
				}

			}
, 			{
				"box" : 				{
					"id" : "obj-15",
					"linecount" : 2,
					"maxclass" : "comment",
					"numinlets" : 1,
					"numoutlets" : 0,
					"patching_rect" : [ 582.779133332031279, 428.0, 67.0, 33.0 ],
					"presentation_linecount" : 2,
					"text" : "Grain rate variation"
				}

			}
, 			{
				"box" : 				{
					"id" : "obj-14",
					"linecount" : 2,
					"maxclass" : "comment",
					"numinlets" : 1,
					"numoutlets" : 0,
					"patching_rect" : [ 522.279133332031279, 428.0, 67.0, 33.0 ],
					"presentation_linecount" : 2,
					"text" : "Grain separation"
				}

			}
, 			{
				"box" : 				{
					"format" : 6,
					"id" : "obj-12",
					"maxclass" : "flonum",
					"maximum" : 1.0,
					"minimum" : 0.0,
					"numinlets" : 1,
					"numoutlets" : 2,
					"outlettype" : [ "", "bang" ],
					"parameter_enable" : 0,
					"patching_rect" : [ 880.953933324218724, 486.0, 50.0, 22.0 ]
				}

			}
, 			{
				"box" : 				{
					"format" : 6,
					"id" : "obj-11",
					"maxclass" : "flonum",
					"minimum" : 0.0,
					"numinlets" : 1,
					"numoutlets" : 2,
					"outlettype" : [ "", "bang" ],
					"parameter_enable" : 0,
					"patching_rect" : [ 822.60337142075889, 486.0, 50.0, 22.0 ]
				}

			}
, 			{
				"box" : 				{
					"format" : 6,
					"id" : "obj-10",
					"maxclass" : "flonum",
					"minimum" : 0.0,
					"numinlets" : 1,
					"numoutlets" : 2,
					"outlettype" : [ "", "bang" ],
					"parameter_enable" : 0,
					"patching_rect" : [ 764.252809517299056, 486.0, 50.0, 22.0 ]
				}

			}
, 			{
				"box" : 				{
					"format" : 6,
					"id" : "obj-9",
					"maxclass" : "flonum",
					"minimum" : 0.0,
					"numinlets" : 1,
					"numoutlets" : 2,
					"outlettype" : [ "", "bang" ],
					"parameter_enable" : 0,
					"patching_rect" : [ 707.25280951729917, 486.0, 50.0, 22.0 ]
				}

			}
, 			{
				"box" : 				{
					"format" : 6,
					"id" : "obj-8",
					"maxclass" : "flonum",
					"minimum" : 0.0,
					"numinlets" : 1,
					"numoutlets" : 2,
					"outlettype" : [ "", "bang" ],
					"parameter_enable" : 0,
					"patching_rect" : [ 647.551685710379388, 486.0, 50.0, 22.0 ]
				}

			}
, 			{
				"box" : 				{
					"format" : 6,
					"id" : "obj-7",
					"maxclass" : "flonum",
					"minimum" : 0.0,
					"numinlets" : 1,
					"numoutlets" : 2,
					"outlettype" : [ "", "bang" ],
					"parameter_enable" : 0,
					"patching_rect" : [ 589.201123806919668, 486.0, 50.0, 22.0 ]
				}

			}
, 			{
				"box" : 				{
					"format" : 6,
					"id" : "obj-6",
					"maxclass" : "flonum",
					"minimum" : 0.0,
					"numinlets" : 1,
					"numoutlets" : 2,
					"outlettype" : [ "", "bang" ],
					"parameter_enable" : 0,
					"patching_rect" : [ 530.779133332031279, 486.0, 50.0, 22.0 ]
				}

			}
, 			{
				"box" : 				{
					"id" : "obj-1",
					"maxclass" : "newobj",
					"numinlets" : 8,
					"numoutlets" : 2,
					"outlettype" : [ "signal", "signal" ],
					"patching_rect" : [ 472.5, 545.0, 427.453933324218724, 22.0 ],
					"text" : "munger~ 3000"
				}

			}
, 			{
				"box" : 				{
					"id" : "obj-4",
					"lastchannelcount" : 0,
					"maxclass" : "live.gain~",
					"numinlets" : 2,
					"numoutlets" : 5,
					"outlettype" : [ "signal", "signal", "", "float", "list" ],
					"parameter_enable" : 1,
					"patching_rect" : [ 666.0, 638.0, 48.0, 136.0 ],
					"saved_attribute_attributes" : 					{
						"valueof" : 						{
							"parameter_longname" : "live.gain~[1]",
							"parameter_mmax" : 6.0,
							"parameter_mmin" : -70.0,
							"parameter_shortname" : "live.gain~[1]",
							"parameter_type" : 0,
							"parameter_unitstyle" : 4
						}

					}
,
					"varname" : "live.gain~[1]"
				}

			}
, 			{
				"box" : 				{
					"color" : [ 0.701961, 0.415686, 0.886275, 1.0 ],
					"id" : "obj-24",
					"maxclass" : "newobj",
					"numinlets" : 1,
					"numoutlets" : 0,
					"patching_rect" : [ 704.666670262813568, 811.0, 68.0, 22.0 ],
					"text" : "send~ out2"
				}

			}
, 			{
				"box" : 				{
					"color" : [ 0.701961, 0.415686, 0.886275, 1.0 ],
					"id" : "obj-28",
					"maxclass" : "newobj",
					"numinlets" : 1,
					"numoutlets" : 0,
					"patching_rect" : [ 622.0, 811.0, 68.0, 22.0 ],
					"text" : "send~ out1"
				}

			}
 ],
		"lines" : [ 			{
				"patchline" : 				{
					"destination" : [ "obj-4", 1 ],
					"source" : [ "obj-1", 1 ]
				}

			}
, 			{
				"patchline" : 				{
					"destination" : [ "obj-4", 0 ],
					"source" : [ "obj-1", 0 ]
				}

			}
, 			{
				"patchline" : 				{
					"destination" : [ "obj-1", 5 ],
					"source" : [ "obj-10", 0 ]
				}

			}
, 			{
				"patchline" : 				{
					"destination" : [ "obj-1", 6 ],
					"source" : [ "obj-11", 0 ]
				}

			}
, 			{
				"patchline" : 				{
					"destination" : [ "obj-1", 7 ],
					"source" : [ "obj-12", 0 ]
				}

			}
, 			{
				"patchline" : 				{
					"destination" : [ "obj-29", 0 ],
					"source" : [ "obj-22", 1 ]
				}

			}
, 			{
				"patchline" : 				{
					"destination" : [ "obj-31", 0 ],
					"source" : [ "obj-22", 0 ]
				}

			}
, 			{
				"patchline" : 				{
					"destination" : [ "obj-34", 0 ],
					"source" : [ "obj-29", 0 ]
				}

			}
, 			{
				"patchline" : 				{
					"destination" : [ "obj-35", 0 ],
					"source" : [ "obj-31", 0 ]
				}

			}
, 			{
				"patchline" : 				{
					"destination" : [ "obj-10", 0 ],
					"source" : [ "obj-34", 0 ]
				}

			}
, 			{
				"patchline" : 				{
					"destination" : [ "obj-36", 0 ],
					"source" : [ "obj-35", 1 ]
				}

			}
, 			{
				"patchline" : 				{
					"destination" : [ "obj-37", 0 ],
					"source" : [ "obj-35", 0 ]
				}

			}
, 			{
				"patchline" : 				{
					"destination" : [ "obj-8", 0 ],
					"source" : [ "obj-36", 0 ]
				}

			}
, 			{
				"patchline" : 				{
					"destination" : [ "obj-6", 0 ],
					"source" : [ "obj-37", 0 ]
				}

			}
, 			{
				"patchline" : 				{
					"destination" : [ "obj-12", 0 ],
					"source" : [ "obj-38", 0 ]
				}

			}
, 			{
				"patchline" : 				{
					"destination" : [ "obj-40", 0 ],
					"source" : [ "obj-39", 0 ]
				}

			}
, 			{
				"patchline" : 				{
					"destination" : [ "obj-24", 0 ],
					"source" : [ "obj-4", 1 ]
				}

			}
, 			{
				"patchline" : 				{
					"destination" : [ "obj-28", 0 ],
					"source" : [ "obj-4", 0 ]
				}

			}
, 			{
				"patchline" : 				{
					"destination" : [ "obj-41", 0 ],
					"source" : [ "obj-40", 0 ]
				}

			}
, 			{
				"patchline" : 				{
					"destination" : [ "obj-42", 0 ],
					"source" : [ "obj-41", 0 ]
				}

			}
, 			{
				"patchline" : 				{
					"destination" : [ "obj-43", 0 ],
					"source" : [ "obj-42", 0 ]
				}

			}
, 			{
				"patchline" : 				{
					"destination" : [ "obj-47", 0 ],
					"source" : [ "obj-46", 0 ]
				}

			}
, 			{
				"patchline" : 				{
					"destination" : [ "obj-22", 0 ],
					"source" : [ "obj-48", 0 ]
				}

			}
, 			{
				"patchline" : 				{
					"destination" : [ "obj-1", 0 ],
					"source" : [ "obj-5", 0 ]
				}

			}
, 			{
				"patchline" : 				{
					"destination" : [ "obj-1", 1 ],
					"source" : [ "obj-6", 0 ]
				}

			}
, 			{
				"patchline" : 				{
					"destination" : [ "obj-1", 2 ],
					"source" : [ "obj-7", 0 ]
				}

			}
, 			{
				"patchline" : 				{
					"destination" : [ "obj-1", 3 ],
					"source" : [ "obj-8", 0 ]
				}

			}
, 			{
				"patchline" : 				{
					"destination" : [ "obj-1", 4 ],
					"source" : [ "obj-9", 0 ]
				}

			}
 ],
		"parameters" : 		{
			"obj-4" : [ "live.gain~[1]", "live.gain~[1]", 0 ],
			"parameterbanks" : 			{
				"0" : 				{
					"index" : 0,
					"name" : "",
					"parameters" : [ "-", "-", "-", "-", "-", "-", "-", "-" ]
				}

			}
,
			"inherited_shortname" : 1
		}
,
		"dependency_cache" : [ 			{
				"name" : "bach.keys.mxo",
				"type" : "iLaX"
			}
, 			{
				"name" : "bach.nth.mxo",
				"type" : "iLaX"
			}
, 			{
				"name" : "dada.bounce.mxo",
				"type" : "iLaX"
			}
, 			{
				"name" : "munger~.mxo",
				"type" : "iLaX"
			}
 ],
		"autosave" : 0
	}

}
